<svg width="176" height="30" viewBox="0 0 176 30" fill="none" xmlns="http://www.w3.org/2000/svg">
<path d="M10.48 8.1V9.96H6.78V22H4.5V9.96H0.78V8.1H10.48ZM20.0091 22L16.8091 16.44H15.0691V22H12.7891V8.1H17.5891C18.6557 8.1 19.5557 8.28667 20.2891 8.66C21.0357 9.03333 21.5891 9.53333 21.9491 10.16C22.3224 10.7867 22.5091 11.4867 22.5091 12.26C22.5091 13.1667 22.2424 13.9933 21.7091 14.74C21.1891 15.4733 20.3824 15.9733 19.2891 16.24L22.7291 22H20.0091ZM15.0691 14.62H17.5891C18.4424 14.62 19.0824 14.4067 19.5091 13.98C19.9491 13.5533 20.1691 12.98 20.1691 12.26C20.1691 11.54 19.9557 10.98 19.5291 10.58C19.1024 10.1667 18.4557 9.96 17.5891 9.96H15.0691V14.62ZM33.8058 19.16H27.9858L26.9858 22H24.6058L29.5858 8.08H32.2258L37.2058 22H34.8058L33.8058 19.16ZM33.1658 17.3L30.9058 10.84L28.6258 17.3H33.1658ZM51.3511 8.1L46.1311 22H43.4911L38.2511 8.1H40.6911L44.8111 19.66L48.9511 8.1H51.3511ZM55.5378 9.94V14.02H60.3378V15.88H55.5378V20.14H60.9378V22H53.2578V8.08H60.9378V9.94H55.5378ZM66.0261 20.16H70.7261V22H63.7461V8.1H66.0261V20.16ZM106.085 20.16H110.785V22H103.805V8.1H106.085V20.16ZM119.031 22.14C117.738 22.14 116.545 21.84 115.451 21.24C114.371 20.6267 113.511 19.78 112.871 18.7C112.245 17.6067 111.931 16.38 111.931 15.02C111.931 13.66 112.245 12.44 112.871 11.36C113.511 10.28 114.371 9.44 115.451 8.84C116.545 8.22667 117.738 7.92 119.031 7.92C120.338 7.92 121.531 8.22667 122.611 8.84C123.705 9.44 124.565 10.28 125.191 11.36C125.818 12.44 126.131 13.66 126.131 15.02C126.131 16.38 125.818 17.6067 125.191 18.7C124.565 19.78 123.705 20.6267 122.611 21.24C121.531 21.84 120.338 22.14 119.031 22.14ZM119.031 20.16C119.951 20.16 120.771 19.9533 121.491 19.54C122.211 19.1133 122.771 18.5133 123.171 17.74C123.585 16.9533 123.791 16.0467 123.791 15.02C123.791 13.9933 123.585 13.0933 123.171 12.32C122.771 11.5467 122.211 10.9533 121.491 10.54C120.771 10.1267 119.951 9.92 119.031 9.92C118.111 9.92 117.291 10.1267 116.571 10.54C115.851 10.9533 115.285 11.5467 114.871 12.32C114.471 13.0933 114.271 13.9933 114.271 15.02C114.271 16.0467 114.471 16.9533 114.871 17.74C115.285 18.5133 115.851 19.1133 116.571 19.54C117.291 19.9533 118.111 20.16 119.031 20.16ZM140.355 8.1L135.135 22H132.495L127.255 8.1H129.695L133.815 19.66L137.955 8.1H140.355ZM144.542 9.94V14.02H149.342V15.88H144.542V20.14H149.942V22H142.262V8.08H149.942V9.94H144.542ZM159.97 22L156.77 16.44H155.03V22H152.75V8.1H157.55C158.617 8.1 159.517 8.28667 160.25 8.66C160.997 9.03333 161.55 9.53333 161.91 10.16C162.283 10.7867 162.47 11.4867 162.47 12.26C162.47 13.1667 162.203 13.9933 161.67 14.74C161.15 15.4733 160.343 15.9733 159.25 16.24L162.69 22H159.97ZM155.03 14.62H157.55C158.403 14.62 159.043 14.4067 159.47 13.98C159.91 13.5533 160.13 12.98 160.13 12.26C160.13 11.54 159.917 10.98 159.49 10.58C159.063 10.1667 158.417 9.96 157.55 9.96H155.03V14.62ZM169.967 22.14C169.033 22.14 168.193 21.98 167.447 21.66C166.7 21.3267 166.113 20.86 165.687 20.26C165.26 19.66 165.047 18.96 165.047 18.16H167.487C167.54 18.76 167.773 19.2533 168.187 19.64C168.613 20.0267 169.207 20.22 169.967 20.22C170.753 20.22 171.367 20.0333 171.807 19.66C172.247 19.2733 172.467 18.78 172.467 18.18C172.467 17.7133 172.327 17.3333 172.047 17.04C171.78 16.7467 171.44 16.52 171.027 16.36C170.627 16.2 170.067 16.0267 169.347 15.84C168.44 15.6 167.7 15.36 167.127 15.12C166.567 14.8667 166.087 14.48 165.687 13.96C165.287 13.44 165.087 12.7467 165.087 11.88C165.087 11.08 165.287 10.38 165.687 9.78C166.087 9.18 166.647 8.72 167.367 8.4C168.087 8.08 168.92 7.92 169.867 7.92C171.213 7.92 172.313 8.26 173.167 8.94C174.033 9.60667 174.513 10.5267 174.607 11.7H172.087C172.047 11.1933 171.807 10.76 171.367 10.4C170.927 10.04 170.347 9.86 169.627 9.86C168.973 9.86 168.44 10.0267 168.027 10.36C167.613 10.6933 167.407 11.1733 167.407 11.8C167.407 12.2267 167.533 12.58 167.787 12.86C168.053 13.1267 168.387 13.34 168.787 13.5C169.187 13.66 169.733 13.8333 170.427 14.02C171.347 14.2733 172.093 14.5267 172.667 14.78C173.253 15.0333 173.747 15.4267 174.147 15.96C174.56 16.48 174.767 17.18 174.767 18.06C174.767 18.7667 174.573 19.4333 174.187 20.06C173.813 20.6867 173.26 21.1933 172.527 21.58C171.807 21.9533 170.953 22.14 169.967 22.14Z" fill="#217F91"/>
<g clip-path="url(#clip0_15_2030)">
<path d="M95.0706 29.8542C95.0386 29.8033 93.4954 26.7946 91.6413 23.1681C89.7871 19.5417 88.2413 16.5449 88.206 16.5085C88.1649 16.4661 87.1836 17.4147 85.4641 19.1592C82.952 21.7078 82.7862 21.8908 82.7872 22.1142C82.7878 22.2453 82.891 23.2089 83.0166 24.2557L83.245 26.159L82.1595 27.2654L81.074 28.3718L79.8143 25.9384L78.5545 23.5049L76.1838 22.249C74.8799 21.5582 73.8124 20.9773 73.8116 20.9582C73.8107 20.9391 74.2895 20.4376 74.8755 19.8439L75.9408 18.7644L78.0306 19.0218L80.1204 19.2792L82.8272 16.5334C84.938 14.3923 85.5134 13.7728 85.4404 13.7198C85.3889 13.6824 82.3742 12.0613 78.741 10.1174L72.1353 6.58308L73.4994 5.19876L74.8636 3.81445L83.0175 6.00722L91.1715 8.19999L94.8999 4.42408C97.5132 1.77747 98.7185 0.602295 98.9298 0.494769C99.1243 0.39574 99.3984 0.330279 99.7028 0.310097C100.302 0.27039 100.747 0.448032 101.144 0.884463C101.512 1.29002 101.632 1.59594 101.63 2.13018C101.627 2.95534 101.673 2.89952 97.4865 7.16026L93.7125 11.0008L95.3427 17.3903C96.2393 20.9046 97.1683 24.5487 97.4071 25.4884L97.8413 27.1968L96.485 28.5718C95.4773 29.5935 95.1138 29.923 95.0706 29.8542Z" fill="#217F91"/>
</g>
<defs>
<clipPath id="clip0_15_2030">
<rect width="30" height="30" fill="white" transform="translate(73)"/>
</clipPath>
</defs>
</svg>
